<?xml version="1.0" encoding="UTF-8" standalone="no"?>
<!-- Created with Inkscape (http://www.inkscape.org/) -->

<svg
   xmlns:dc="http://purl.org/dc/elements/1.1/"
   xmlns:cc="http://creativecommons.org/ns#"
   xmlns:rdf="http://www.w3.org/1999/02/22-rdf-syntax-ns#"
   xmlns:svg="http://www.w3.org/2000/svg"
   xmlns="http://www.w3.org/2000/svg"
   xmlns:sodipodi="http://sodipodi.sourceforge.net/DTD/sodipodi-0.dtd"
   xmlns:inkscape="http://www.inkscape.org/namespaces/inkscape"
   width="496.06299"
   height="460.62991"
   id="svg2"
   version="1.1"
   inkscape:version="0.91 r13725"
   sodipodi:docname="vb_insert_top.svg">
  <defs
     id="defs4" />
  <sodipodi:namedview
     id="base"
     pagecolor="#ffffff"
     bordercolor="#666666"
     borderopacity="1.0"
     inkscape:pageopacity="0.0"
     inkscape:pageshadow="2"
     inkscape:zoom="2"
     inkscape:cx="178.25689"
     inkscape:cy="213.74382"
     inkscape:document-units="px"
     inkscape:current-layer="layer1"
     showgrid="false"
     units="mm"
     showguides="true"
     inkscape:guide-bbox="true"
     inkscape:window-width="1219"
     inkscape:window-height="1023"
     inkscape:window-x="823"
     inkscape:window-y="56"
     inkscape:window-maximized="0" />
  <metadata
     id="metadata7">
    <rdf:RDF>
      <cc:Work
         rdf:about="">
        <dc:format>image/svg+xml</dc:format>
        <dc:type
           rdf:resource="http://purl.org/dc/dcmitype/StillImage" />
        <dc:title />
      </cc:Work>
    </rdf:RDF>
  </metadata>
  <g
     inkscape:label="Layer 1"
     inkscape:groupmode="layer"
     id="layer1"
     transform="translate(0,-591.73223)">
    <rect
       style="fill:#ffffff;stroke:#000000;stroke-width:1;stroke-miterlimit:4;stroke-opacity:1;stroke-dasharray:none"
       id="rect3001"
       width="448.22833"
       height="411.73227"
       x="25.30315"
       y="622.41333" />
    <g
       style="font-size:40px;font-style:normal;font-variant:normal;font-weight:normal;font-stretch:normal;line-height:125%;letter-spacing:0px;word-spacing:0px;fill:none;fill-opacity:1;stroke:#000000;font-family:Virtual Logo;-inkscape-font-specification:Virtual Logo;stroke-opacity:1"
       id="text3004">
      <path
         d="m 48.966831,688.74786 -10.986328,-52.73437 5.859375,0 5.126953,29.0625 5.126953,-29.0625 5.859375,0 -10.986328,52.73437"
         style="font-size:60px;letter-spacing:4px;fill:none;stroke:#000000;stroke-opacity:1"
         id="path3821" />
      <path
         d="m 65.418003,688.74786 0,-52.73437 5.859375,0 0,52.73437 -5.859375,0"
         style="font-size:60px;letter-spacing:4px;fill:none;stroke:#000000;stroke-opacity:1"
         id="path3823" />
      <path
         d="m 78.207066,688.74786 0,-52.73437 10.253906,0 c 4.492173,0.39068 6.933576,2.83208 7.324219,7.32422 l 0,14.64844 c -0.19533,3.12502 -1.77736,5.07815 -4.746094,5.85937 l 6.210937,24.90234 -5.859375,0 -7.294922,-29.29687 5.830079,0 0,-17.57813 -5.859375,0 0,46.875 -5.859375,0"
         style="font-size:60px;letter-spacing:4px;fill:none;stroke:#000000;stroke-opacity:1"
         id="path3825" />
      <path
         d="m 118.38871,636.01349 0,5.85937 -6.00586,0 0,46.875 -5.85938,0 0,-46.875 -5.85937,0 0,-5.85937 17.72461,0"
         style="font-size:60px;letter-spacing:4px;fill:none;stroke:#000000;stroke-opacity:1"
         id="path3827" />
      <path
         d="m 125.17191,636.01349 5.85937,0 0,46.875 5.85938,0 0,-46.875 5.85937,0 0,45.41016 c -0.39064,4.49219 -2.83204,6.93359 -7.32421,7.32421 l -2.92969,0 c -4.49219,-0.39062 -6.9336,-2.83202 -7.32422,-7.32421 l 0,-45.41016"
         style="font-size:60px;letter-spacing:4px;fill:none;stroke:#000000;stroke-opacity:1"
         id="path3829" />
      <path
         d="m 171.06644,688.74786 -5.85937,0 -1.20118,-6.79687 -7.85156,0 -1.20117,6.79687 -5.85938,0 10.98633,-52.73437 10.98633,52.73437 m -10.98633,-29.0625 -2.95898,16.66993 5.88867,0 -2.92969,-16.66993"
         style="font-size:60px;letter-spacing:4px;fill:none;stroke:#000000;stroke-opacity:1"
         id="path3831" />
      <path
         d="m 176.53128,688.74786 0,-52.73437 5.85938,0 0,46.875 11.71875,0 0,5.85937 -17.57813,0"
         style="font-size:60px;letter-spacing:4px;fill:none;stroke:#000000;stroke-opacity:1"
         id="path3833" />
    </g>
    <g
       style="font-size:40px;font-style:normal;font-variant:normal;font-weight:normal;font-stretch:normal;line-height:125%;letter-spacing:0px;word-spacing:0px;fill:none;fill-opacity:1;stroke:#000000;font-family:Virtual Logo;-inkscape-font-specification:Virtual Logo;stroke-opacity:1"
       id="text3004-7">
      <path
         d="m 400.0881,993.45105 0,-17.57813 -5.85937,0 0,17.57813 5.85937,0 m -5.85937,23.43745 5.85937,0 0,-17.57808 -5.85937,0 0,17.57808 m -5.85938,-46.87495 10.25391,0 c 4.49217,0.39068 6.93358,2.83208 7.32422,7.32422 l 0,14.64844 c -2e-5,1.56253 -0.4883,3.02737 -1.46484,4.39453 0.97654,1.36721 1.46482,2.83205 1.46484,4.39456 l 0,14.6484 c -0.39064,4.4922 -2.83205,6.9336 -7.32422,7.3242 l -10.25391,0 0,-52.73435"
         style="font-size:60px;letter-spacing:4px;stroke:#000000;stroke-opacity:1;fill:none"
         id="path3836" />
      <path
         d="m 430.45529,1015.4237 c -0.39064,4.4922 -2.83204,6.9336 -7.32422,7.3242 l -2.92968,0 c -4.49219,-0.3906 -6.9336,-2.832 -7.32422,-7.3242 l 0,-38.08593 c 0.39062,-4.49214 2.83203,-6.93354 7.32422,-7.32422 l 2.92968,0 c 4.49218,0.39068 6.93358,2.83208 7.32422,7.32422 l 0,38.08593 m -11.71875,-39.55078 0,41.01558 5.85938,0 0,-41.01558 -5.85938,0"
         style="font-size:60px;letter-spacing:4px;stroke:#000000;stroke-opacity:1;fill:none"
         id="path3838" />
      <path
         d="m 444.7092,1002.2401 -8.78906,-32.22655 5.85937,0 5.85938,21.47461 5.85937,-21.47461 5.85938,0 -8.78907,32.16795 0,20.5664 -5.85937,0 0,-20.5078"
         style="font-size:60px;letter-spacing:4px;stroke:#000000;stroke-opacity:1;fill:none"
         id="path3840" />
    </g>
    <path
       style="fill:none;stroke:#000000;stroke-width:1.21974921;stroke-miterlimit:4;stroke-dasharray:none;stroke-opacity:1"
       d="m 250,79.625 c -16.42353,0 -29.80937,12.98835 -30.46875,29.25 l -89.625,0 c -8.864,0 -16,7.136 -16,16 l 0,226.75491 c 0,8.864 7.13891,15.77298 16,16 l 118.125,2 118.125,-2 c 8.86273,-0.15005 16,-7.136 16,-16 l 0,-226.75491 c 0,-8.864 -7.136,-16 -16,-16 l -85.6875,0 C 279.80937,92.61335 266.42353,79.625 250,79.625 Z"
       transform="translate(0,591.73223)"
       id="rect2998"
       inkscape:connector-curvature="0"
       sodipodi:nodetypes="scsssscsssscs" />
  </g>
</svg>
