  0
SECTION
  2
HEADER
  9
$ACADVER
  1
AC1014
  9
$HANDSEED
  5
FFFF
  9
$MEASUREMENT
 70
     1
  0
ENDSEC
  0
SECTION
  2
TABLES
  0
TABLE
  2
VPORT
  5
8
330
0
100
AcDbSymbolTable
 70
     4
  0
VPORT
  5
2E
330
8
100
AcDbSymbolTableRecord
100
AcDbViewportTableRecord
  2
*ACTIVE
 70
     0
 10
0.0
 20
0.0
 11
1.0
 21
1.0
 12
210.0
 22
148.5
 13
0.0
 23
0.0
 14
10.0
 24
10.0
 15
10.0
 25
10.0
 16
0.0
 26
0.0
 36
1.0
 17
0.0
 27
0.0
 37
0.0
 40
341.0
 41
1.24
 42
50.0
 43
0.0
 44
0.0
 50
0.0
 51
0.0
 71
     0
 72
   100
 73
     1
 74
     3
 75
     0
 76
     0
 77
     0
 78
     0
  0
ENDTAB
  0
TABLE
  2
LTYPE
  5
5
330
0
100
AcDbSymbolTable
 70
     1
  0
LTYPE
  5
14
330
5
100
AcDbSymbolTableRecord
100
AcDbLinetypeTableRecord
  2
BYBLOCK
 70
     0
  3

 72
    65
 73
     0
 40
0.0
  0
LTYPE
  5
15
330
5
100
AcDbSymbolTableRecord
100
AcDbLinetypeTableRecord
  2
BYLAYER
 70
     0
  3

 72
    65
 73
     0
 40
0.0
  0
LTYPE
  5
16
330
5
100
AcDbSymbolTableRecord
100
AcDbLinetypeTableRecord
  2
CONTINUOUS
 70
     0
  3
Solid line
 72
    65
 73
     0
 40
0.0
  0
ENDTAB
  0
TABLE
  2
LAYER
  5
2
100
AcDbSymbolTable
 70
2
  0
LAYER
  5
50
100
AcDbSymbolTableRecord
100
AcDbLayerTableRecord
  2
0
 70
0
  6
CONTINUOUS
  0
LAYER
  5
51
100
AcDbSymbolTableRecord
100
AcDbLayerTableRecord
  2
Layer_1
 70
0
  6
CONTINUOUS
  0
ENDTAB
  0
TABLE
  2
STYLE
  5
3
330
0
100
AcDbSymbolTable
 70
     1
  0
STYLE
  5
11
330
3
100
AcDbSymbolTableRecord
100
AcDbTextStyleTableRecord
  2
STANDARD
 70
     0
 40
0.0
 41
1.0
 50
0.0
 71
     0
 42
2.5
  3
txt
  4

  0
ENDTAB
  0
TABLE
  2
VIEW
  5
6
330
0
100
AcDbSymbolTable
 70
     0
  0
ENDTAB
  0
TABLE
  2
UCS
  5
7
330
0
100
AcDbSymbolTable
 70
     0
  0
ENDTAB
  0
TABLE
  2
APPID
  5
9
330
0
100
AcDbSymbolTable
 70
     2
  0
APPID
  5
12
330
9
100
AcDbSymbolTableRecord
100
AcDbRegAppTableRecord
  2
ACAD
 70
     0
  0
ENDTAB
  0
TABLE
  2
DIMSTYLE
  5
A
330
0
100
AcDbSymbolTable
 70
     1
  0
DIMSTYLE
105
27
330
A
100
AcDbSymbolTableRecord
100
AcDbDimStyleTableRecord
  2
ISO-25
 70
     0
  3

  4

  5

  6

  7

 40
1.0
 41
2.5
 42
0.625
 43
3.75
 44
1.25
 45
0.0
 46
0.0
 47
0.0
 48
0.0
140
2.5
141
2.5
142
0.0
143
0.03937007874016
144
1.0
145
0.0
146
1.0
147
0.625
 71
     0
 72
     0
 73
     0
 74
     0
 75
     0
 76
     0
 77
     1
 78
     8
170
     0
171
     3
172
     1
173
     0
174
     0
175
     0
176
     0
177
     0
178
     0
270
     2
271
     2
272
     2
273
     2
274
     3
340
11
275
     0
280
     0
281
     0
282
     0
283
     0
284
     8
285
     0
286
     0
287
     3
288
     0
  0
ENDTAB
  0
TABLE
  2
BLOCK_RECORD
  5
1
330
0
100
AcDbSymbolTable
 70
     1
  0
BLOCK_RECORD
  5
1F
330
1
100
AcDbSymbolTableRecord
100
AcDbBlockTableRecord
  2
*MODEL_SPACE
  0
BLOCK_RECORD
  5
1B
330
1
100
AcDbSymbolTableRecord
100
AcDbBlockTableRecord
  2
*PAPER_SPACE
  0
ENDTAB
  0
ENDSEC
  0
SECTION
  2
BLOCKS
  0
BLOCK
  5
20
330
1F
100
AcDbEntity
  8
0
100
AcDbBlockBegin
  2
*MODEL_SPACE
 70
     0
 10
0.0
 20
0.0
 30
0.0
  3
*MODEL_SPACE
  1

  0
ENDBLK
  5
21
330
1F
100
AcDbEntity
  8
0
100
AcDbBlockEnd
  0
BLOCK
  5
1C
330
1B
100
AcDbEntity
 67
     1
  8
0
100
AcDbBlockBegin
  2
*PAPER_SPACE
  1

  0
ENDBLK
  5
1D
330
1B
100
AcDbEntity
 67
     1
  8
0
100
AcDbBlockEnd
  0
ENDSEC
  0
SECTION
  2
ENTITIES
  0
LWPOLYLINE
  5
100
100
AcDbEntity
  8
Layer_1
 62
7
100
AcDbPolyline
 90
5
 70
0
 10
7.141111
 20
121.341109
 30
0.0
 10
133.641107
 20
121.341109
 30
0.0
 10
133.641107
 20
5.141112
 30
0.0
 10
7.141111
 20
5.141112
 30
0.0
 10
7.141111
 20
121.341109
 30
0.0
  0
LWPOLYLINE
  5
101
100
AcDbEntity
  8
Layer_1
 62
7
100
AcDbPolyline
 90
7
 70
0
 10
13.819528
 20
102.620030
 30
0.0
 10
10.718942
 20
117.502841
 30
0.0
 10
12.372588
 20
117.502841
 30
0.0
 10
13.819528
 20
109.300758
 30
0.0
 10
15.266468
 20
117.502841
 30
0.0
 10
16.920114
 20
117.502841
 30
0.0
 10
13.819528
 20
102.620030
 30
0.0
  0
LWPOLYLINE
  5
102
100
AcDbEntity
  8
Layer_1
 62
7
100
AcDbPolyline
 90
5
 70
0
 10
18.462414
 20
102.620030
 30
0.0
 10
18.462414
 20
117.502841
 30
0.0
 10
20.116060
 20
117.502841
 30
0.0
 10
20.116060
 20
102.620030
 30
0.0
 10
18.462414
 20
102.620030
 30
0.0
  0
LWPOLYLINE
  5
103
100
AcDbEntity
  8
Layer_1
 62
7
100
AcDbPolyline
 90
3
 70
0
 10
22.071772
 20
102.620030
 30
0.0
 10
22.071772
 20
117.502841
 30
0.0
 10
24.965652
 20
117.502841
 30
0.0
  0
SPLINE
  5
104
100
AcDbEntity
  8
Layer_1
 62
7
100
AcDbSpline
 70
0
 71
3
 72
10
 73
6
 74
4
 40
0.000000
 40
0.000000
 40
0.000000
 40
0.000000
 40
1.116806
 40
2.091226
 40
3.208024
 40
3.208024
 40
3.208024
 40
3.208024
 10
24.965652
 20
117.502841
 30
0.0
 10
25.340112
 20
117.441318
 30
0.0
 10
26.041289
 20
117.326117
 30
0.0
 10
26.855991
 20
116.511417
 30
0.0
 10
26.971189
 20
115.810241
 30
0.0
 10
27.032709
 20
115.435784
 30
0.0
 11
24.965652
 21
117.502841
 31
0.0
 11
26.040519
 21
117.199663
 31
0.0
 11
26.729538
 21
116.510644
 31
0.0
 11
27.032709
 21
115.435784
 31
0.0
  0
LWPOLYLINE
  5
105
100
AcDbEntity
  8
Layer_1
 62
7
100
AcDbPolyline
 90
2
 70
0
 10
27.032709
 20
115.435784
 30
0.0
 10
27.032709
 20
111.301668
 30
0.0
  0
LWPOLYLINE
  5
106
100
AcDbEntity
  8
Layer_1
 62
7
100
AcDbPolyline
 90
9
 70
0
 10
25.693256
 20
109.648024
 30
0.0
 10
27.446121
 20
102.620030
 30
0.0
 10
25.792475
 20
102.620030
 30
0.0
 10
23.733686
 20
110.888258
 30
0.0
 10
25.379064
 20
110.888258
 30
0.0
 10
25.379064
 20
115.849197
 30
0.0
 10
23.725418
 20
115.849197
 30
0.0
 10
23.725418
 20
102.620030
 30
0.0
 10
22.071772
 20
102.620030
 30
0.0
  0
LWPOLYLINE
  5
107
100
AcDbEntity
  8
Layer_1
 62
7
100
AcDbPolyline
 90
9
 70
0
 10
33.411925
 20
117.502841
 30
0.0
 10
33.411925
 20
115.849197
 30
0.0
 10
31.716938
 20
115.849197
 30
0.0
 10
31.716938
 20
102.620030
 30
0.0
 10
30.063290
 20
102.620030
 30
0.0
 10
30.063290
 20
115.849197
 30
0.0
 10
28.409646
 20
115.849197
 30
0.0
 10
28.409646
 20
117.502841
 30
0.0
 10
33.411925
 20
117.502841
 30
0.0
  0
SPLINE
  5
108
100
AcDbEntity
  8
Layer_1
 62
7
100
AcDbSpline
 70
0
 71
3
 72
10
 73
6
 74
4
 40
0.000000
 40
0.000000
 40
0.000000
 40
0.000000
 40
0.793706
 40
1.503062
 40
2.283945
 40
2.283945
 40
2.283945
 40
2.283945
 10
27.032709
 20
111.301668
 30
0.0
 10
26.995259
 20
111.036212
 30
0.0
 10
26.924339
 20
110.533511
 30
0.0
 10
26.417528
 20
109.904036
 30
0.0
 10
25.942284
 20
109.736049
 30
0.0
 10
25.693256
 20
109.648024
 30
0.0
 11
27.032709
 21
111.301668
 31
0.0
 11
26.847130
 21
110.529963
 31
0.0
 11
26.400646
 21
109.978748
 31
0.0
 11
25.693256
 21
109.648024
 31
0.0
  0
LWPOLYLINE
  5
109
100
AcDbEntity
  8
Layer_1
 62
7
100
AcDbPolyline
 90
7
 70
0
 10
35.326295
 20
117.502841
 30
0.0
 10
36.979939
 20
117.502841
 30
0.0
 10
36.979939
 20
104.273675
 30
0.0
 10
38.633586
 20
104.273675
 30
0.0
 10
38.633586
 20
117.502841
 30
0.0
 10
40.287231
 20
117.502841
 30
0.0
 10
40.287231
 20
104.687085
 30
0.0
  0
SPLINE
  5
10a
100
AcDbEntity
  8
Layer_1
 62
7
100
AcDbSpline
 70
0
 71
3
 72
10
 73
6
 74
4
 40
0.000000
 40
0.000000
 40
0.000000
 40
0.000000
 40
1.116807
 40
2.091226
 40
3.208028
 40
3.208028
 40
3.208028
 40
3.208028
 10
40.287231
 20
104.687085
 30
0.0
 10
40.225711
 20
104.312624
 30
0.0
 10
40.110516
 20
103.611445
 30
0.0
 10
39.295813
 20
102.796742
 30
0.0
 10
38.594635
 20
102.681548
 30
0.0
 10
38.220176
 20
102.620030
 30
0.0
 11
40.287231
 21
104.687085
 31
0.0
 11
39.984060
 21
103.612215
 31
0.0
 11
39.295042
 21
102.923197
 31
0.0
 11
38.220176
 21
102.620030
 31
0.0
  0
LWPOLYLINE
  5
10b
100
AcDbEntity
  8
Layer_1
 62
7
100
AcDbPolyline
 90
2
 70
0
 10
38.220176
 20
102.620030
 30
0.0
 10
37.393352
 20
102.620030
 30
0.0
  0
LWPOLYLINE
  5
10c
100
AcDbEntity
  8
Layer_1
 62
7
100
AcDbPolyline
 90
2
 70
0
 10
35.326295
 20
104.687085
 30
0.0
 10
35.326295
 20
117.502841
 30
0.0
  0
LWPOLYLINE
  5
10d
100
AcDbEntity
  8
Layer_1
 62
7
100
AcDbPolyline
 90
8
 70
0
 10
48.278751
 20
102.620030
 30
0.0
 10
46.625106
 20
102.620030
 30
0.0
 10
46.286107
 20
104.538258
 30
0.0
 10
44.070222
 20
104.538258
 30
0.0
 10
43.731225
 20
102.620030
 30
0.0
 10
42.077578
 20
102.620030
 30
0.0
 10
45.178164
 20
117.502841
 30
0.0
 10
48.278751
 20
102.620030
 30
0.0
  0
LWPOLYLINE
  5
10e
100
AcDbEntity
  8
Layer_1
 62
7
100
AcDbPolyline
 90
4
 70
0
 10
45.178164
 20
110.822113
 30
0.0
 10
44.343074
 20
106.117489
 30
0.0
 10
46.004988
 20
106.117489
 30
0.0
 10
45.178164
 20
110.822113
 30
0.0
  0
LWPOLYLINE
  5
10f
100
AcDbEntity
  8
Layer_1
 62
7
100
AcDbPolyline
 90
7
 70
0
 10
49.821050
 20
102.620030
 30
0.0
 10
49.821050
 20
117.502841
 30
0.0
 10
51.474697
 20
117.502841
 30
0.0
 10
51.474697
 20
104.273675
 30
0.0
 10
54.781989
 20
104.273675
 30
0.0
 10
54.781989
 20
102.620030
 30
0.0
 10
49.821050
 20
102.620030
 30
0.0
  0
LWPOLYLINE
  5
110
100
AcDbEntity
  8
Layer_1
 62
7
100
AcDbPolyline
 90
5
 70
0
 10
112.913753
 20
16.626019
 30
0.0
 10
112.913753
 20
21.586958
 30
0.0
 10
111.260108
 20
21.586958
 30
0.0
 10
111.260108
 20
16.626019
 30
0.0
 10
112.913753
 20
16.626019
 30
0.0
  0
LWPOLYLINE
  5
111
100
AcDbEntity
  8
Layer_1
 62
7
100
AcDbPolyline
 90
5
 70
0
 10
111.260108
 20
10.011450
 30
0.0
 10
112.913753
 20
10.011450
 30
0.0
 10
112.913753
 20
14.972374
 30
0.0
 10
111.260108
 20
14.972374
 30
0.0
 10
111.260108
 20
10.011450
 30
0.0
  0
SPLINE
  5
112
100
AcDbEntity
  8
Layer_1
 62
7
100
AcDbSpline
 70
0
 71
3
 72
10
 73
6
 74
4
 40
0.000000
 40
0.000000
 40
0.000000
 40
0.000000
 40
1.116807
 40
2.091226
 40
3.208032
 40
3.208032
 40
3.208032
 40
3.208032
 10
37.393352
 20
102.620030
 30
0.0
 10
37.018891
 20
102.681548
 30
0.0
 10
36.317712
 20
102.796741
 30
0.0
 10
35.503006
 20
103.611444
 30
0.0
 10
35.387813
 20
104.312624
 30
0.0
 10
35.326295
 20
104.687085
 30
0.0
 11
37.393352
 21
102.620030
 31
0.0
 11
36.318482
 21
102.923197
 31
0.0
 11
35.629462
 21
103.612215
 31
0.0
 11
35.326295
 21
104.687085
 31
0.0
  0
LWPOLYLINE
  5
113
100
AcDbEntity
  8
Layer_1
 62
7
100
AcDbPolyline
 90
2
 70
0
 10
109.606461
 20
23.240602
 30
0.0
 10
112.500342
 20
23.240602
 30
0.0
  0
SPLINE
  5
114
100
AcDbEntity
  8
Layer_1
 62
7
100
AcDbSpline
 70
0
 71
3
 72
10
 73
6
 74
4
 40
0.000000
 40
0.000000
 40
0.000000
 40
0.000000
 40
1.116806
 40
2.091226
 40
3.208024
 40
3.208024
 40
3.208024
 40
3.208024
 10
112.500342
 20
23.240602
 30
0.0
 10
112.874802
 20
23.179079
 30
0.0
 10
113.575979
 20
23.063877
 30
0.0
 10
114.390682
 20
22.249178
 30
0.0
 10
114.505879
 20
21.548002
 30
0.0
 10
114.567400
 20
21.173544
 30
0.0
 11
112.500342
 21
23.240602
 31
0.0
 11
113.575209
 21
22.937424
 31
0.0
 11
114.264228
 21
22.248405
 31
0.0
 11
114.567400
 21
21.173544
 31
0.0
  0
SPLINE
  5
115
100
AcDbEntity
  8
Layer_1
 62
7
100
AcDbSpline
 70
0
 71
3
 72
10
 73
6
 74
4
 40
0.000000
 40
0.000000
 40
0.000000
 40
0.000000
 40
0.434228
 40
0.870001
 40
1.326945
 40
1.326945
 40
1.326945
 40
1.326945
 10
114.567400
 20
17.039429
 30
0.0
 10
114.558433
 20
16.894531
 30
0.0
 10
114.540467
 20
16.604219
 30
0.0
 10
114.396506
 20
16.179207
 30
0.0
 10
114.236096
 20
15.927853
 30
0.0
 10
114.153990
 20
15.799195
 30
0.0
 11
114.567400
 21
17.039429
 31
0.0
 11
114.521462
 21
16.607638
 31
0.0
 11
114.383658
 21
16.194227
 31
0.0
 11
114.153990
 21
15.799195
 31
0.0
  0
LWPOLYLINE
  5
116
100
AcDbEntity
  8
Layer_1
 62
7
100
AcDbPolyline
 90
2
 70
0
 10
114.567400
 20
21.173544
 30
0.0
 10
114.567400
 20
17.039429
 30
0.0
  0
SPLINE
  5
117
100
AcDbEntity
  8
Layer_1
 62
7
100
AcDbSpline
 70
0
 71
3
 72
10
 73
6
 74
4
 40
0.000000
 40
0.000000
 40
0.000000
 40
0.000000
 40
0.456953
 40
0.892728
 40
1.326952
 40
1.326952
 40
1.326952
 40
1.326952
 10
114.153990
 20
15.799195
 30
0.0
 10
114.236096
 20
15.670534
 30
0.0
 10
114.396505
 20
15.419175
 30
0.0
 10
114.540467
 20
14.994162
 30
0.0
 10
114.558433
 20
14.703850
 30
0.0
 10
114.567400
 20
14.558953
 30
0.0
 11
114.153990
 21
15.799195
 31
0.0
 11
114.383658
 21
15.404153
 31
0.0
 11
114.521462
 21
14.990740
 31
0.0
 11
114.567400
 21
14.558953
 31
0.0
  0
LWPOLYLINE
  5
118
100
AcDbEntity
  8
Layer_1
 62
7
100
AcDbPolyline
 90
2
 70
0
 10
114.567400
 20
14.558953
 30
0.0
 10
114.567400
 20
10.424849
 30
0.0
  0
SPLINE
  5
119
100
AcDbEntity
  8
Layer_1
 62
7
100
AcDbSpline
 70
0
 71
3
 72
10
 73
6
 74
4
 40
0.000000
 40
0.000000
 40
0.000000
 40
0.000000
 40
1.116809
 40
2.091228
 40
3.208030
 40
3.208030
 40
3.208030
 40
3.208030
 10
114.567400
 20
10.424849
 30
0.0
 10
114.505880
 20
10.050387
 30
0.0
 10
114.390685
 20
9.349208
 30
0.0
 10
113.575981
 20
8.534504
 30
0.0
 10
112.874802
 20
8.419313
 30
0.0
 10
112.500342
 20
8.357797
 30
0.0
 11
114.567400
 21
10.424849
 31
0.0
 11
114.264228
 21
9.349977
 31
0.0
 11
113.575209
 21
8.660960
 31
0.0
 11
112.500342
 21
8.357797
 31
0.0
  0
LWPOLYLINE
  5
11a
100
AcDbEntity
  8
Layer_1
 62
7
100
AcDbPolyline
 90
3
 70
0
 10
112.500342
 20
8.357797
 30
0.0
 10
109.606461
 20
8.357797
 30
0.0
 10
109.606461
 20
23.240602
 30
0.0
  0
SPLINE
  5
11b
100
AcDbEntity
  8
Layer_1
 62
7
100
AcDbSpline
 70
0
 71
3
 72
10
 73
6
 74
4
 40
0.000000
 40
0.000000
 40
0.000000
 40
0.000000
 40
1.116809
 40
2.091227
 40
3.208030
 40
3.208030
 40
3.208030
 40
3.208030
 10
121.484049
 20
10.424849
 30
0.0
 10
121.422529
 20
10.050387
 30
0.0
 10
121.307334
 20
9.349208
 30
0.0
 10
120.492630
 20
8.534504
 30
0.0
 10
119.791451
 20
8.419313
 30
0.0
 10
119.416991
 20
8.357797
 30
0.0
 11
121.484049
 21
10.424849
 31
0.0
 11
121.180878
 21
9.349977
 31
0.0
 11
120.491859
 21
8.660960
 31
0.0
 11
119.416991
 21
8.357797
 31
0.0
  0
LWPOLYLINE
  5
11c
100
AcDbEntity
  8
Layer_1
 62
7
100
AcDbPolyline
 90
2
 70
0
 10
119.416991
 20
8.357797
 30
0.0
 10
118.590170
 20
8.357797
 30
0.0
  0
SPLINE
  5
11d
100
AcDbEntity
  8
Layer_1
 62
7
100
AcDbSpline
 70
0
 71
3
 72
10
 73
6
 74
4
 40
0.000000
 40
0.000000
 40
0.000000
 40
0.000000
 40
1.116805
 40
2.091225
 40
3.208032
 40
3.208032
 40
3.208032
 40
3.208032
 10
118.590170
 20
8.357797
 30
0.0
 10
118.215709
 20
8.419313
 30
0.0
 10
117.514529
 20
8.534503
 30
0.0
 10
116.699823
 20
9.349207
 30
0.0
 10
116.584630
 20
10.050387
 30
0.0
 10
116.523112
 20
10.424849
 30
0.0
 11
118.590170
 21
8.357797
 31
0.0
 11
117.515300
 21
8.660960
 31
0.0
 11
116.826280
 21
9.349977
 31
0.0
 11
116.523112
 21
10.424849
 31
0.0
  0
LWPOLYLINE
  5
11e
100
AcDbEntity
  8
Layer_1
 62
7
100
AcDbPolyline
 90
2
 70
0
 10
116.523112
 20
10.424849
 30
0.0
 10
116.523112
 20
21.173544
 30
0.0
  0
SPLINE
  5
11f
100
AcDbEntity
  8
Layer_1
 62
7
100
AcDbSpline
 70
0
 71
3
 72
10
 73
6
 74
4
 40
0.000000
 40
0.000000
 40
0.000000
 40
0.000000
 40
1.116797
 40
2.091217
 40
3.208027
 40
3.208027
 40
3.208027
 40
3.208027
 10
116.523112
 20
21.173544
 30
0.0
 10
116.584631
 20
21.548002
 30
0.0
 10
116.699826
 20
22.249179
 30
0.0
 10
117.514531
 20
23.063878
 30
0.0
 10
118.215709
 20
23.179079
 30
0.0
 10
118.590170
 20
23.240602
 30
0.0
 11
116.523112
 21
21.173544
 31
0.0
 11
116.826280
 21
22.248405
 31
0.0
 11
117.515300
 21
22.937424
 31
0.0
 11
118.590170
 21
23.240602
 31
0.0
  0
LWPOLYLINE
  5
120
100
AcDbEntity
  8
Layer_1
 62
7
100
AcDbPolyline
 90
2
 70
0
 10
118.590170
 20
23.240602
 30
0.0
 10
119.416991
 20
23.240602
 30
0.0
  0
LWPOLYLINE
  5
121
100
AcDbEntity
  8
Layer_1
 62
7
100
AcDbPolyline
 90
2
 70
0
 10
121.484049
 20
21.173544
 30
0.0
 10
121.484049
 20
10.424849
 30
0.0
  0
LWPOLYLINE
  5
122
100
AcDbEntity
  8
Layer_1
 62
7
100
AcDbPolyline
 90
5
 70
0
 10
118.176757
 20
21.586958
 30
0.0
 10
118.176757
 20
10.011450
 30
0.0
 10
119.830404
 20
10.011450
 30
0.0
 10
119.830404
 20
21.586958
 30
0.0
 10
118.176757
 20
21.586958
 30
0.0
  0
SPLINE
  5
123
100
AcDbEntity
  8
Layer_1
 62
7
100
AcDbSpline
 70
0
 71
3
 72
10
 73
6
 74
4
 40
0.000000
 40
0.000000
 40
0.000000
 40
0.000000
 40
1.116807
 40
2.091227
 40
3.208025
 40
3.208025
 40
3.208025
 40
3.208025
 10
119.416991
 20
23.240602
 30
0.0
 10
119.791451
 20
23.179079
 30
0.0
 10
120.492629
 20
23.063878
 30
0.0
 10
121.307331
 20
22.249178
 30
0.0
 10
121.422528
 20
21.548002
 30
0.0
 10
121.484049
 20
21.173544
 30
0.0
 11
119.416991
 21
23.240602
 31
0.0
 11
120.491859
 21
22.937424
 31
0.0
 11
121.180878
 21
22.248405
 31
0.0
 11
121.484049
 21
21.173544
 31
0.0
  0
LWPOLYLINE
  5
124
100
AcDbEntity
  8
Layer_1
 62
7
100
AcDbPolyline
 90
10
 70
0
 10
125.506819
 20
14.145554
 30
0.0
 10
123.026351
 20
23.240602
 30
0.0
 10
124.679995
 20
23.240602
 30
0.0
 10
126.333642
 20
17.179990
 30
0.0
 10
127.987287
 20
23.240602
 30
0.0
 10
129.640934
 20
23.240602
 30
0.0
 10
127.160463
 20
14.162092
 30
0.0
 10
127.160463
 20
8.357797
 30
0.0
 10
125.506819
 20
8.357797
 30
0.0
 10
125.506819
 20
14.145554
 30
0.0
  0
SPLINE
  5
125
100
AcDbEntity
  8
Layer_1
 62
7
100
AcDbSpline
 70
0
 71
3
 72
10
 73
6
 74
4
 40
0.000000
 40
0.000000
 40
0.000000
 40
0.000000
 40
4.393289
 40
8.653403
 40
13.025515
 40
13.025515
 40
13.025515
 40
13.025515
 10
70.555556
 20
107.528052
 30
0.0
 10
69.083669
 20
107.302563
 30
0.0
 10
66.184515
 20
106.858421
 30
0.0
 10
62.799417
 20
103.597844
 30
0.0
 10
62.239957
 20
100.727065
 30
0.0
 10
61.956597
 20
99.273052
 30
0.0
 11
70.555556
 21
107.528052
 31
0.0
 11
66.307512
 21
106.407734
 31
0.0
 11
63.238645
 21
103.452970
 31
0.0
 11
61.956597
 21
99.273052
 31
0.0
  0
LWPOLYLINE
  5
126
100
AcDbEntity
  8
Layer_1
 62
7
100
AcDbPolyline
 90
2
 70
0
 10
61.956597
 20
99.273052
 30
0.0
 10
36.662431
 20
99.273052
 30
0.0
  0
SPLINE
  5
127
100
AcDbEntity
  8
Layer_1
 62
7
100
AcDbSpline
 70
0
 71
3
 72
10
 73
6
 74
4
 40
0.000000
 40
0.000000
 40
0.000000
 40
0.000000
 40
2.363874
 40
4.652413
 40
7.016287
 40
7.016287
 40
7.016287
 40
7.016287
 10
36.662431
 20
99.273052
 30
0.0
 10
35.869940
 20
99.149827
 30
0.0
 10
34.310214
 20
98.907303
 30
0.0
 10
32.512624
 20
97.109714
 30
0.0
 10
32.270100
 20
95.549988
 30
0.0
 10
32.146875
 20
94.757497
 30
0.0
 11
36.662431
 21
99.273052
 31
0.0
 11
34.379901
 21
98.658268
 31
0.0
 11
32.761660
 21
97.040027
 31
0.0
 11
32.146875
 21
94.757497
 31
0.0
  0
LWPOLYLINE
  5
128
100
AcDbEntity
  8
Layer_1
 62
7
100
AcDbPolyline
 90
2
 70
0
 10
32.146875
 20
94.757497
 30
0.0
 10
32.146875
 20
30.762222
 30
0.0
  0
SPLINE
  5
129
100
AcDbEntity
  8
Layer_1
 62
7
100
AcDbSpline
 70
0
 71
3
 72
10
 73
6
 74
4
 40
0.000000
 40
0.000000
 40
0.000000
 40
0.000000
 40
2.350177
 40
4.628800
 40
6.999888
 40
6.999888
 40
6.999888
 40
6.999888
 10
32.146875
 20
30.762222
 30
0.0
 10
32.270004
 20
29.973276
 30
0.0
 10
32.512512
 20
28.419403
 30
0.0
 10
34.319878
 20
26.647666
 30
0.0
 10
35.871296
 20
26.382093
 30
0.0
 10
36.662431
 20
26.246667
 30
0.0
 11
32.146875
 21
30.762222
 31
0.0
 11
32.761842
 21
28.493930
 31
0.0
 11
34.380266
 21
26.889927
 31
0.0
 11
36.662431
 21
26.246667
 31
0.0
  0
LWPOLYLINE
  5
12a
100
AcDbEntity
  8
Layer_1
 62
7
100
AcDbPolyline
 90
3
 70
0
 10
36.662431
 20
26.246667
 30
0.0
 10
69.999931
 20
25.682222
 30
0.0
 10
103.337431
 20
26.246667
 30
0.0
  0
SPLINE
  5
12b
100
AcDbEntity
  8
Layer_1
 62
7
100
AcDbSpline
 70
0
 71
3
 72
10
 73
6
 74
4
 40
0.000000
 40
0.000000
 40
0.000000
 40
0.000000
 40
2.368685
 40
4.650636
 40
7.005446
 40
7.005446
 40
7.005446
 40
7.005446
 10
103.337431
 20
26.246667
 30
0.0
 10
104.129061
 20
26.377947
 30
0.0
 10
105.683334
 20
26.635700
 30
0.0
 10
107.487358
 20
28.416223
 30
0.0
 10
107.729840
 20
29.972073
 30
0.0
 10
107.852986
 20
30.762222
 30
0.0
 11
103.337431
 21
26.246667
 31
0.0
 11
105.619801
 21
26.880272
 31
0.0
 11
107.238122
 21
28.489103
 31
0.0
 11
107.852986
 21
30.762222
 31
0.0
  0
LWPOLYLINE
  5
12c
100
AcDbEntity
  8
Layer_1
 62
7
100
AcDbPolyline
 90
2
 70
0
 10
107.852986
 20
30.762222
 30
0.0
 10
107.852986
 20
94.757497
 30
0.0
  0
SPLINE
  5
12d
100
AcDbEntity
  8
Layer_1
 62
7
100
AcDbSpline
 70
0
 71
3
 72
10
 73
6
 74
4
 40
0.000000
 40
0.000000
 40
0.000000
 40
0.000000
 40
2.363874
 40
4.652413
 40
7.016287
 40
7.016287
 40
7.016287
 40
7.016287
 10
107.852986
 20
94.757497
 30
0.0
 10
107.729761
 20
95.549988
 30
0.0
 10
107.487237
 20
97.109714
 30
0.0
 10
105.689647
 20
98.907303
 30
0.0
 10
104.129922
 20
99.149827
 30
0.0
 10
103.337431
 20
99.273052
 30
0.0
 11
107.852986
 21
94.757497
 31
0.0
 11
107.238202
 21
97.040027
 31
0.0
 11
105.619960
 21
98.658268
 31
0.0
 11
103.337431
 21
99.273052
 31
0.0
  0
LWPOLYLINE
  5
12e
100
AcDbEntity
  8
Layer_1
 62
7
100
AcDbPolyline
 90
2
 70
0
 10
103.337431
 20
99.273052
 30
0.0
 10
79.154514
 20
99.273052
 30
0.0
  0
SPLINE
  5
12f
100
AcDbEntity
  8
Layer_1
 62
7
100
AcDbSpline
 70
0
 71
3
 72
10
 73
6
 74
4
 40
0.000000
 40
0.000000
 40
0.000000
 40
0.000000
 40
4.372112
 40
8.632225
 40
13.025515
 40
13.025515
 40
13.025515
 40
13.025515
 10
79.154514
 20
99.273052
 30
0.0
 10
78.871154
 20
100.727065
 30
0.0
 10
78.311694
 20
103.597844
 30
0.0
 10
74.926596
 20
106.858421
 30
0.0
 10
72.027442
 20
107.302563
 30
0.0
 10
70.555556
 20
107.528052
 30
0.0
 11
79.154514
 21
99.273052
 31
0.0
 11
77.872466
 21
103.452970
 31
0.0
 11
74.803599
 21
106.407734
 31
0.0
 11
70.555556
 21
107.528052
 31
0.0
  0
LWPOLYLINE
  5
130
100
AcDbEntity
  8
Layer_1
 62
7
100
AcDbPolyline
 90
2
 70
0
 10
70.555556
 20
107.528052
 30
0.0
 10
70.555556
 20
107.528052
 30
0.0
  0
ENDSEC
  0
SECTION
  2
OBJECTS
  0
DICTIONARY
  5
C
330
0
100
AcDbDictionary
  3
ACAD_GROUP
350
D
  3
ACAD_MLINESTYLE
350
17
  0
DICTIONARY
  5
D
330
C
100
AcDbDictionary
  0
DICTIONARY
  5
1A
330
C
100
AcDbDictionary
  0
DICTIONARY
  5
17
330
C
100
AcDbDictionary
  3
STANDARD
350
18
  0
DICTIONARY
  5
19
330
C
100
AcDbDictionary
  0
ENDSEC
  0
EOF
